HIERARCHY
ROOT root
{
	OFFSET	0	13.1	24.9
	CHANNELS 6  Xposition Yposition Zposition Xrotation Yrotation Zrotation
	JOINT spine_1
	{
		OFFSET	0	9.99999	0
		CHANNELS 3  Xrotation Yrotation Zrotation
		JOINT spine_2
		{
			OFFSET	0	112	-10
			CHANNELS 3  Xrotation Yrotation Zrotation
			JOINT spine_3
			{
				OFFSET	0	206.5	19.3
				CHANNELS 3  Xrotation Yrotation Zrotation
				JOINT spine_4
				{
					OFFSET	0	110.4	14.6
					CHANNELS 3  Xrotation Yrotation Zrotation
					JOINT neck_1
					{
						OFFSET	0	71.8	-50.3
						CHANNELS 3  Xrotation Yrotation Zrotation
						JOINT neck_2
						{
							OFFSET	0	86.2	-25.8
							CHANNELS 3  Xrotation Yrotation Zrotation
							JOINT head_ee
							{
								OFFSET	0	179.8	-8.7
								CHANNELS 3  Xrotation Yrotation Zrotation
								End Site
								{
									OFFSET	1	0	0
								}
							}
						}
					}
					JOINT left_clavicle
					{
						OFFSET	-43.2	22.4	-70.8
						CHANNELS 3  Xrotation Yrotation Zrotation
						JOINT left_shoulder
						{
							OFFSET	-93.9	-5.79999	48.7
							CHANNELS 3  Xrotation Yrotation Zrotation
							JOINT left_elbow
							{
								OFFSET	-291.4	-30.8	15.2
								CHANNELS 3  Xrotation Yrotation Zrotation
								JOINT left_lowarm_twist
								{
									OFFSET	-110.7	-3.89999	13.6
									CHANNELS 3  Xrotation Yrotation Zrotation
									JOINT left_hand
									{
										OFFSET	-110.7	-3.89999	13.6
										CHANNELS 3  Xrotation Yrotation Zrotation
										JOINT left_ee
										{
											OFFSET	-80.8	-5.10001	12.1
											CHANNELS 3  Xrotation Yrotation Zrotation
											End Site
											{
												OFFSET	1	0	0
											}
										}
									}
								}
							}
						}
					}
					JOINT right_clavicle
					{
						OFFSET	43.2	22.4	-70.8
						CHANNELS 3  Xrotation Yrotation Zrotation
						JOINT right_shoulder
						{
							OFFSET	93.9	-5.79999	48.7
							CHANNELS 3  Xrotation Yrotation Zrotation
							JOINT right_elbow
							{
								OFFSET	291.4	-30.8	15.2
								CHANNELS 3  Xrotation Yrotation Zrotation
								JOINT right_lowarm_twist
								{
									OFFSET	110.7	-3.89999	13.6
									CHANNELS 3  Xrotation Yrotation Zrotation
									JOINT right_hand
									{
										OFFSET	110.7	-3.89999	13.6
										CHANNELS 3  Xrotation Yrotation Zrotation
										JOINT right_ee
										{
											OFFSET	80.8	-5.10001	12.1
											CHANNELS 3  Xrotation Yrotation Zrotation
											End Site
											{
												OFFSET	1	0	0
											}
										}
									}
								}
							}
						}
					}
				}
			}
		}
	}
	JOINT left_hip
	{
		OFFSET	-82.8	-127.5	0.300001
		CHANNELS 3  Xrotation Yrotation Zrotation
		JOINT left_knee
		{
			OFFSET	-28.2	-396.7	2.2
			CHANNELS 3  Xrotation Yrotation Zrotation
			JOINT left_ankle
			{
				OFFSET	-11.7	-411.3	35.4
				CHANNELS 3  Xrotation Yrotation Zrotation
				JOINT left_toes
				{
					OFFSET	0	-60	-88.6
					CHANNELS 3  Xrotation Yrotation Zrotation
					JOINT left_foot_ee
					{
						OFFSET	-22.5	-16.5	-42.2
						CHANNELS 3  Xrotation Yrotation Zrotation
						End Site
						{
							OFFSET	1	0	0
						}
					}
				}
			}
		}
	}
	JOINT right_hip
	{
		OFFSET	82.8	-127.5	0.300001
		CHANNELS 3  Xrotation Yrotation Zrotation
		JOINT right_knee
		{
			OFFSET	28.2	-396.7	2.2
			CHANNELS 3  Xrotation Yrotation Zrotation
			JOINT right_ankle
			{
				OFFSET	11.7	-411.3	35.4
				CHANNELS 3  Xrotation Yrotation Zrotation
				JOINT right_toes
				{
					OFFSET	0	-60	-88.6
					CHANNELS 3  Xrotation Yrotation Zrotation
					JOINT right_foot_ee
					{
						OFFSET	22.5	-16.5	-42.2
						CHANNELS 3  Xrotation Yrotation Zrotation
						End Site
						{
							OFFSET	1	0	0
						}
					}
				}
			}
		}
	}
}
MOTION
Frames: 12
Frame Time: 0.02
3177.02 653.055 -1669.29 -8.32438667356 75.4110319701 9.42002819661 0.637749 0.371981 1.71644 0.63935 0.262023 1.73662 0.647946 -0.088982 1.75401 0.643702 0.189105 1.74606 -25.5522 3.90637 -0.230056 -25.674 7.62247 1.80333 -0.0 0.0 -0.0 -0.139723 22.548 2.41943 -23.5874 -29.2093 62.0606 0.57202 -15.8209 0.0794812 -68.5409 -6.35996 5.28678 3.98968 -3.92019 26.0975 -0.0 0.0 -0.0 12.604 21.6921 -25.1948 4.99816 18.1428 -56.2007 3.6007 60.7079 -2.10909 -11.5557 0.547381 -1.36981 -2.36364 1.50817 16.7181 0.0 0.0 0.0 36.1129 33.0427 -11.2055 -6.21417 0.205522 0.931082 -8.30725 -19.6595 1.40359 -28.7309 0.0 0.0 -0.0 0.0 -0.0 -21.6485 -3.57588 4.9575 -5.86451 -0.196651 -0.878155 28.387 4.20511 3.77625 -15.3015 0.0 0.0 0.0 0.0 0.0 
3151.85530364 659.075 -1661.3862178 -9.09418685489 75.2635302951 10.2477899686 0.637797 0.338693 1.50463 0.639024 0.242274 1.52313 0.645975 -0.0658805 1.54086 0.642706 0.178268 1.53193 -22.39 4.24719 2.26737 -22.4609 7.14044 4.05411 -0.0 0.0 -0.0 0.0805282 23.4083 2.81875 -23.8048 -29.9879 61.0549 0.607982 -16.7612 0.0895695 -69.5212 -6.48493 5.2977 3.12451 -1.79051 20.656 -0.0 0.0 -0.0 12.5358 22.244 -24.9898 3.24139 17.5434 -55.2166 3.42999 59.5071 -1.96108 -11.6394 0.552341 -1.3793 -2.31256 0.312215 15.7909 0.0 0.0 0.0 34.6794 33.0154 -10.3402 -8.52884 0.256079 1.28266 -1.49808 -19.5778 0.249273 -25.8007 0.0 0.0 -0.0 0.0 -0.0 -20.8717 -3.21724 6.23271 -8.61226 -0.257635 -1.29537 19.9535 2.73293 2.76562 -13.5498 0.0 0.0 0.0 0.0 0.0 
3151.90493034 659.075 -1661.22991364 -9.31354694484 75.6151730919 10.4744281577 0.637797 0.338693 1.50463 0.639024 0.242274 1.52313 0.645975 -0.0658805 1.54086 0.642706 0.178268 1.53193 -22.39 4.24719 2.26737 -22.4609 7.14044 4.05411 -0.0 0.0 -0.0 0.0805282 23.4083 2.81875 -23.8048 -29.9879 61.0549 0.607982 -16.7612 0.0895695 -69.5212 -6.48493 5.2977 3.12451 -1.79051 20.656 -0.0 0.0 -0.0 12.5358 22.244 -24.9898 3.24139 17.5434 -55.2166 3.42999 59.5071 -1.96108 -11.6394 0.552341 -1.3793 -2.31256 0.312215 15.7909 0.0 0.0 0.0 34.6794 33.0154 -10.3402 -8.52884 0.256079 1.28266 -1.49808 -19.5778 0.249273 -25.8007 0.0 0.0 -0.0 0.0 -0.0 -20.8717 -3.21724 6.23271 -8.61226 -0.257635 -1.29537 19.9535 2.73293 2.76562 -13.5498 0.0 0.0 0.0 0.0 0.0 
3127.4271429 662.742 -1659.17497749 -9.51312978083 75.6653284486 10.8193421483 0.544705 0.270126 1.52508 0.545982 0.172545 1.53918 0.551131 -0.13999 1.54248 0.547826 0.105343 1.54523 -22.3727 3.54421 3.32858 -22.3871 5.28831 4.70888 -0.0 0.0 -0.0 0.0495139 23.6854 2.80607 -23.5526 -30.7751 60.8843 0.617511 -17.0088 0.0923373 -70.6618 -6.63052 5.30771 2.65839 -0.142956 18.0089 -0.0 0.0 -0.0 12.3955 21.7516 -24.7083 1.26021 16.7909 -55.9232 3.71206 61.4456 -2.20656 -13.2856 0.652741 -1.56449 -2.19139 0.170282 14.8828 0.0 0.0 0.0 32.3106 32.5515 -10.0201 -8.73195 0.259836 1.3136 3.32749 -20.9227 -0.553031 -25.6725 0.0 0.0 -0.0 0.0 -0.0 -21.03 -2.50623 6.44805 -10.1365 -0.282813 -1.52789 16.2015 2.53879 2.28362 -11.9456 0.0 0.0 0.0 0.0 0.0 
3105.29969499 663.539 -1655.06587087 -7.65029035278 75.6222238965 8.89638079091 0.551142 0.248202 1.3559 0.55215 0.161427 1.36895 0.556416 -0.116572 1.37349 0.553797 0.101787 1.37467 -22.2354 4.5691 3.92351 -22.2712 6.98026 5.72029 -0.0 0.0 -0.0 0.0484009 23.9511 2.83309 -23.0743 -31.0947 60.6713 0.659576 -18.0941 0.105023 -70.5267 -6.61326 5.30667 1.70187 0.402034 11.6062 -0.0 0.0 -0.0 12.2131 20.1003 -24.4165 -0.619602 16.0879 -55.9337 3.83207 62.2033 -2.31235 -15.5273 0.797952 -1.81192 -1.85812 -2.24369 11.462 0.0 0.0 0.0 30.7712 32.415 -9.38601 -11.1664 0.296319 1.68534 7.63264 -19.4026 -1.2319 -24.93 0.0 0.0 -0.0 0.0 -0.0 -20.9596 -1.03632 7.36841 -13.3666 -0.31568 -2.02235 12.8761 -0.100277 1.82725 -11.267 0.0 0.0 0.0 0.0 0.0 
3057.33041922 674.151 -1647.0464496 -6.36788292443 70.5880854315 8.47126629713 0.558664 0.37842 0.872903 0.55903 0.32211 0.895212 0.564303 0.136071 0.941614 0.563178 0.283067 0.908312 -21.7914 4.21382 4.57448 -21.7871 5.95326 6.12605 -0.0 0.0 -0.0 0.784399 23.541 3.7945 -22.3185 -30.8273 60.4242 0.817724 -22.0516 0.159334 -72.1459 -6.82011 5.31635 -0.219565 11.1421 3.20412 -0.0 0.0 -0.0 12.3729 22.3073 -24.6085 -3.53315 14.7133 -56.1317 3.23462 58.0192 -1.79401 -19.1986 1.05641 -2.20445 -1.50859 -0.91887 9.70908 0.0 0.0 0.0 27.8262 31.9425 -9.55417 -12.3804 0.308603 1.8712 13.2895 -19.7237 -2.10147 -19.211 0.0 0.0 -0.0 0.0 -0.0 -18.7903 1.7127 7.98028 -17.4687 -0.317182 -2.6516 8.12974 -7.59094 1.16287 -15.8372 0.0 0.0 0.0 0.0 0.0 
3057.33309392 674.151 -1647.03206225 -6.37005144538 70.5949302714 8.47356547235 0.558664 0.37842 0.872903 0.55903 0.32211 0.895212 0.564303 0.136071 0.941614 0.563178 0.283067 0.908312 -21.7914 4.21382 4.57448 -21.7871 5.95326 6.12605 -0.0 0.0 -0.0 0.784399 23.541 3.7945 -22.3185 -30.8273 60.4242 0.817724 -22.0516 0.159334 -72.1459 -6.82011 5.31635 -0.219565 11.1421 3.20412 -0.0 0.0 -0.0 12.3729 22.3073 -24.6085 -3.53315 14.7133 -56.1317 3.23462 58.0192 -1.79401 -19.1986 1.05641 -2.20445 -1.50859 -0.91887 9.70908 0.0 0.0 0.0 27.8262 31.9425 -9.55417 -12.3804 0.308603 1.8712 13.2895 -19.7237 -2.10147 -19.211 0.0 0.0 -0.0 0.0 -0.0 -18.7903 1.7127 7.98028 -17.4687 -0.317182 -2.6516 8.12974 -7.59094 1.16287 -15.8372 0.0 0.0 0.0 0.0 0.0 
3057.2734751 674.151 -1647.35507223 -6.32175069699 70.4412867207 8.42233146423 0.558664 0.37842 0.872903 0.55903 0.32211 0.895212 0.564303 0.136071 0.941614 0.563178 0.283067 0.908312 -21.7914 4.21382 4.57448 -21.7871 5.95326 6.12605 -0.0 0.0 -0.0 0.784399 23.541 3.7945 -22.3185 -30.8273 60.4242 0.817724 -22.0516 0.159334 -72.1459 -6.82011 5.31635 -0.219565 11.1421 3.20412 -0.0 0.0 -0.0 12.3729 22.3073 -24.6085 -3.53315 14.7133 -56.1317 3.23462 58.0192 -1.79401 -19.1986 1.05641 -2.20445 -1.50859 -0.91887 9.70908 0.0 0.0 0.0 27.8262 31.9425 -9.55417 -12.3804 0.308603 1.8712 13.2895 -19.7237 -2.10147 -19.211 0.0 0.0 -0.0 0.0 -0.0 -18.7903 1.7127 7.98028 -17.4687 -0.317182 -2.6516 8.12974 -7.59094 1.16287 -15.8372 0.0 0.0 0.0 0.0 0.0 
3016.70362105 685.459 -1640.49081243 -4.50348421035 66.4545002039 7.77807220548 0.111798 -0.00571563 0.424755 0.111897 -0.032732 0.42353 0.11169 -0.120225 0.407425 0.111462 -0.0543718 0.421299 -21.6214 2.40766 3.62761 -21.5968 2.90627 4.43332 -0.0 0.0 -0.0 2.22633 23.3714 5.76198 -22.2378 -32.5092 59.0912 0.850193 -22.8387 0.171731 -71.8829 -6.7865 5.31518 -0.716468 14.401 1.43666 -0.0 0.0 -0.0 12.455 23.462 -24.691 -7.94005 17.074 -55.435 2.98262 55.8979 -1.58274 -22.9828 1.34867 -2.59106 -1.61487 -0.0924995 10.8073 0.0 0.0 0.0 22.7074 28.9692 -8.64637 -11.7455 0.30267 1.77397 18.1015 -15.2259 -2.69751 -11.7192 0.0 0.0 -0.0 0.0 -0.0 -15.734 3.77551 7.56517 -21.7179 -0.271271 -3.30182 16.0354 -19.3201 2.27618 -18.0913 0.0 0.0 0.0 0.0 0.0 
3016.73453955 685.459 -1640.31922626 -4.51456496156 66.515639808 7.79015647993 0.111798 -0.00571563 0.424755 0.111897 -0.032732 0.42353 0.11169 -0.120225 0.407425 0.111462 -0.0543718 0.421299 -21.6214 2.40766 3.62761 -21.5968 2.90627 4.43332 -0.0 0.0 -0.0 2.22633 23.3714 5.76198 -22.2378 -32.5092 59.0912 0.850193 -22.8387 0.171731 -71.8829 -6.7865 5.31518 -0.716468 14.401 1.43666 -0.0 0.0 -0.0 12.455 23.462 -24.691 -7.94005 17.074 -55.435 2.98262 55.8979 -1.58274 -22.9828 1.34867 -2.59106 -1.61487 -0.0924995 10.8073 0.0 0.0 0.0 22.7074 28.9692 -8.64637 -11.7455 0.30267 1.77397 18.1015 -15.2259 -2.69751 -11.7192 0.0 0.0 -0.0 0.0 -0.0 -15.734 3.77551 7.56517 -21.7179 -0.271271 -3.30182 16.0354 -19.3201 2.27618 -18.0913 0.0 0.0 0.0 0.0 0.0 
2986.37825654 691.285 -1638.86025545 -1.10323318509 63.989571449 5.47694630112 -0.0359123 -0.13542 0.106248 -0.0359174 -0.141906 0.0974155 -0.0361688 -0.159252 0.0653135 -0.0361442 -0.146939 0.0896448 -25.3009 1.83936 3.7355 -25.2691 1.99482 4.40618 -0.0 0.0 -0.0 3.07549 22.6059 6.91921 -19.3857 -32.9621 58.4462 0.87598 -23.4575 0.181868 -72.1726 -6.82352 5.31646 -1.0321 16.5352 0.410235 -0.0 0.0 -0.0 12.1191 24.3717 -23.8288 -13.5029 18.4117 -54.9609 2.45236 50.5323 -1.15759 -26.1026 1.60848 -2.89487 -1.51403 -0.409729 9.97797 0.0 0.0 0.0 18.9291 27.3728 -8.70958 -10.8488 0.292456 1.63676 17.7858 -13.3147 -2.61996 -7.6287 0.0 0.0 -0.0 0.0 -0.0 -14.1848 5.64037 6.85176 -25.7006 -0.18459 -3.90673 24.6681 -23.1581 3.43235 -17.9045 0.0 0.0 0.0 0.0 0.0 
2976.13301288 695.086 -1639.3868763 1.34055576519 63.6614157068 3.6275961893 -0.0724564 -0.014918 -0.084479 -0.0724525 -0.00951219 -0.0852571 -0.0724359 0.0087272 -0.085341 -0.0724462 -0.00486034 -0.0856483 -24.777 1.91268 5.47508 -24.6957 1.3657 6.03669 -0.0 0.0 -0.0 3.88798 22.2065 8.06549 -18.3624 -32.8624 57.2864 0.763386 -20.7145 0.139521 -72.1419 -6.8196 5.31634 -0.759168 14.9008 1.38449 -0.0 0.0 -0.0 12.4895 24.5636 -24.6594 -14.7874 18.0879 -55.2467 2.20431 47.5105 -0.970259 -26.0784 1.60641 -2.89257 -1.61536 -2.44603 9.72894 0.0 0.0 0.0 14.7489 26.7321 -8.78834 -9.56962 0.274172 1.44134 18.8697 -12.7637 -2.75492 -6.01417 0.0 0.0 -0.0 0.0 -0.0 -13.1165 5.79484 5.60272 -28.2455 -0.107259 -4.2896 29.2603 -24.4969 4.00965 -18.2095 0.0 0.0 0.0 0.0 0.0 
